<?xml version="1.0" encoding="UTF-8"?>
<svg id="Calque_1" data-name="Calque 1" xmlns="http://www.w3.org/2000/svg" viewBox="0 0 360.5 372.47">
  <defs>
    <style>
      .cls-1 {
        fill: #fff;
      }
    </style>
  </defs>
  <path class="cls-1" d="M219.4,65.56c3.61,2.7,5.84-.37,8.18-.62,7.4-.78,5.54,6.19,9.31,7.99,3.2,1.52,5.61-1.04,8.03-.5,4.09.91,4.68,8.04,7.24,9.28,2.75,1.34,7.08-.2,9.05,1.14,1.48,1.01,1.21,5.84,3.14,8.27,2.44,3.06,8.62,1.22,10.24,3.73,1.3,2-.25,5.54,1.74,8.35s8.31,2.7,9.78,5.57c1.25,2.43-1.35,4.73-.15,7.5,1.45,3.39,7.74,3.85,9.09,6.35l-.58,9.23,7.37,5.48c1.14,3.41-2.13,7.51-.97,10.89.99,2.91,7.33,2.44,6.25,8.94-.36,2.19-2.86,3.69-2.64,6.33.27,3.21,4.76,4.26,5.24,7.71.54,3.85-2.72,5.58-2.74,8.73-.03,3.88,4.19,5.48,3.74,9.83-.34,3.27-3.38,3.32-4.02,4.97-2.17,5.65,2.53,7.34,2.52,10.4,0,3.3-5.64,5.58-5.96,8.84-.29,2.91,2.53,5.96,1.98,8.3-.84,3.56-6.06,4.21-6.89,7.05-1.04,3.57,2.68,8.25-.51,11.4-1.39,1.37-5.44,1.47-6.7,4.09-1.52,3.15.35,7.84-1.21,10.14-1.27,1.88-6.78,1.04-8.73,5.35-2.8,6.18,3.59,8.95-10.83,11.25-1.35,14.05-6.32,7.26-12.22,10.95l-3.39,8.31c-2.97,3.23-7.14-.41-10.22,1.17-2.55,1.3-2.49,6.32-5.08,7.68-3.59,1.88-6.79-1.11-9.36-.5-2.89.68-3.76,6.29-6.88,7.2-3.67,1.07-7.61-2.06-11-.93-2.56.85-2.62,5.8-6.66,6.2-3.23.32-6.11-3.24-10.16-2.65-3.2.46-2.94,4.74-6.57,4.83-3.34.08-5.11-3.87-10.03-3.62-4.17.21-5.24,3.96-7.66,3.97-2.92,0-4.21-4.64-7.74-5.13-4.78-.66-7.61,4.38-12.44,1.37-1.62-1.01-1.79-4.23-4.35-4.96-3.03-.86-7.14,2.25-11.01.93-2.28-.78-3.49-5.76-5.99-6.79s-6.72,2.2-10.21.06c-3.93-8.9-5.58-7.8-14.42-8.09-2.57-1.69-1-6.66-4.15-8.85-2.87-2-7.76-.63-9.58-1.89s-.93-6.45-2.35-8.71-7.16-1.34-9.19-3.83-.3-6.22-2.31-9.06c-3.3-4.67-12.29-.82-9.25-15.45-12.01-2.88-5.86-8.53-6.79-12.93-.81-3.85-6.14-4.79-6.9-7.01-1.14-3.34,2-7.15.93-10.83-.71-2.42-4.51-3.38-4.97-6.66-.52-3.75,2.23-5.09,2.63-7.58.91-5.8-5.18-6.7-5.17-9.97.01-2.51,4.63-4.74,4.9-7.76.24-2.67-2.69-4.27-3.32-6.42-1.88-6.51,3.76-6.8,4.67-10.03,1.09-3.85-2.76-6.41-2.43-9.75.4-3.99,5.43-4.06,6.28-6.57,1.16-3.42-3.12-9.56.51-12.67,1.11-.95,4.17-.48,5.44-2.83,1.91-3.55-1.78-7.25.66-10.58,2.18-2.97,6.38-2.11,7.7-4.12,1.97-3,.27-8.32,1.74-10.57,1.37-2.09,7.23-1.48,8.48-3.26,1.37-1.94,1.22-9.46,2.63-10.35,1.34-.85,5.51.38,8.74-2.08s2.12-6.55,4.33-8.32c2.45-1.96,7.42-.56,10.16-2.27,2.04-1.27,1.59-6.82,4.67-8.39,10.66,2.38,9.49-2.2,16.21-7.91,9.19,2.99,9.37,1.68,15.32-5.07l9.69,2.14c7.99-6.08,7.04-7.24,16.81-2.23,6.76-5.19,9.89-5.25,16.71,0l8.68-3.6,9.21,6.12,8.58-2.43c3.02.81,3.63,4.61,5.15,5.75ZM168.95,77.64c-81.7,7.79-125.26,99.46-79.42,167.04,45.28,66.76,149.56,60.57,186.71-10.82,39.3-75.53-21.97-164.35-107.29-156.22Z"/>
  <g id="QfmwIw">
    <g>
      <path class="cls-1" d="M189.32,102.1c-.52-.67-1.5.49-2.01.72-17.57,8.1-37.11,15.86-52.19,27.95-9.34,7.49-11.52,14.37-14.44,25.62-1,3.85-2.92,11.71-1.79,15.32.52,1.65,3.02,5.3,4.25,6.56,1.58,1.62,4.29,3.14,5.71,5.12,1.58,2.19-1.62,2.43-3.42,2.93-9.76,2.72-17.04,1.47-21.97,11.88-.67,1.41-.89,3.12-1.68,4.36-.94,1.47-3.29,2.47-3.15,4.49,2.94-.9,3.82-1.55,6.11.71,3.49,3.44,6.09,6.08,11.26,6.96,3.01.51,6.29.95,9.23.94,3.89-.01,7.01.68,10.74.87,4.59.23,9.31-.25,13.91.05,1.88.55,5.68,8.38,6.95,10.35,1.62,2.54,3.85,5.76,5.9,7.95,12.19,12.99,35.97,10.68,52.01,8.57,6.89-.9,14.06-1.67,20.93-2.87,3.27-.57,11.33-1.96,14.05-3.06.31-.13,1.75-.93,1.54-1.2-1.51-.52-2.72-1.27-4.34-1.6-4.01-.8-9.44-.64-13.5-.09-1.63.22-4.05,1.1-5.53,1.08-1.83-.03-3.73-1.44-5.59-1.66-1.32-.15-2.4.22-3.46.2-3.5-.1-7.07-3.09-10.53-4.18-1.72-.54-2.93-.24-4.51-1.49-2.06-1.64-3.75-3.24-6.05-4.73-.66-.43-1.7-.5-2.16-1.02-.73-.83-1.72-6.31-2.7-7.95s-3.44-3.39-4.38-4.85-1.16-3.45-2.25-4.95c-2.8-3.87-7.41-6.37-10.86-9.36-.31-.27-.69-.47-.85-.88-.07-.38,1.86-3.93,2.23-4.6,2.92-5.34,5.67-10.98,11.28-13.83,9.84-4.99,19.02-6.15,29.7-8.27,7.88-1.57,15.84-2.8,23.57-5,.14-.88.25-2.12-.93-1.95l-39,6.31c-1.28.12-2.89-.61-3.91-1.32-.56-.39-.62-.82-.99-1.19-.13-.13-.59,0-.79-.26-.12-.16-1.3-3.42-1.36-3.76-.13-.73-.22-2.29.08-2.94.27-.57,2.82-3.3,3.48-4.02,5.51-6.12,11.28-12.01,16.87-18.06,1.29-1.4,9.95-10.87,10.04-11.63.13-1.14-.66-1.18-1.48-.57-4.7,3.49-10.18,10.52-14.66,14.79-2.65,2.53-5.6,4.82-8.3,7.3-13.76,12.7-24.71,24.25-44.91,25.38-.61.03-2.33.17-2.63-.26-.31-.97,0-1.98-.19-2.96-.22-1.09-1.49-1.92-1.63-2.71-.17-.95.54-1.89.12-3.25-.35-1.1-1.58-1.3-2.04-2-.37-.57-.31-1.39-.62-1.97-.37-.68-1.25-1.43-1.44-2.02-.32-1,.12-2.13-.34-3.1-.36-.77-1.73-.98-1.83-1.94.27-1.45,1.43-2.3,1.64-3.85.11-.79-.23-1.46-.06-2.02.19-.62,1.4-1.72,1.79-2.56.86-1.83,1.01-3.13-.03-4.89l16.72-13.94-.44-.97,6.43-4.87c.4-.64-.84-.73-.02-1.44s2.83-1.19,4.03-2.05c1.55-1.12,2.8-3.04,4.28-4.09,1.08-.77,2.71-1.36,3.91-2.16,1.09-.72,7.43-4.49,6.23-6.02Z"/>
      <path class="cls-1" d="M189.32,102.1c1.19,1.54-5.15,5.3-6.23,6.02-1.21.8-2.83,1.39-3.91,2.16-1.49,1.05-2.74,2.97-4.28,4.09-1.2.86-3.25,1.37-4.03,2.05s.42.8.02,1.44l-6.43,4.87.44.97-16.72,13.94c1.04,1.77.89,3.06.03,4.89-.39.84-1.61,1.94-1.79,2.56-.17.56.17,1.23.06,2.02-.21,1.55-1.37,2.41-1.64,3.85.1.96,1.47,1.18,1.83,1.94.46.98.02,2.1.34,3.1.19.59,1.07,1.34,1.44,2.02.31.58.26,1.4.62,1.97.46.7,1.69.9,2.04,2,.43,1.35-.29,2.29-.12,3.25.14.8,1.41,1.62,1.63,2.71.2.98-.11,1.99.19,2.96.31.43,2.02.3,2.63.26,20.21-1.14,31.15-12.68,44.91-25.38,2.69-2.49,5.65-4.77,8.3-7.3,4.48-4.27,9.96-11.3,14.66-14.79.82-.61,1.61-.56,1.48.57-.09.76-8.75,10.23-10.04,11.63-5.59,6.05-11.36,11.94-16.87,18.06-.65.73-3.21,3.45-3.48,4.02-.3.65-.21,2.2-.08,2.94.06.35,1.24,3.6,1.36,3.76.2.26.66.13.79.26.37.37.43.81.99,1.19,1.03.71,2.64,1.44,3.91,1.32l39-6.31c1.19-.16,1.07,1.08.93,1.95-7.73,2.19-15.69,3.43-23.57,5-10.68,2.12-19.87,3.28-29.7,8.27-5.61,2.85-8.35,8.48-11.28,13.83-.37.67-2.3,4.22-2.23,4.6.16.41.54.61.85.88,3.45,2.99,8.06,5.49,10.86,9.36,1.09,1.5,1.33,3.52,2.25,4.95s3.44,3.27,4.38,4.85,1.97,7.12,2.7,7.95c.46.52,1.5.6,2.16,1.02,2.3,1.49,3.98,3.09,6.05,4.73,1.58,1.25,2.79.95,4.51,1.49,3.46,1.09,7.03,4.08,10.53,4.18,1.05.03,2.13-.35,3.46-.2,1.86.22,3.75,1.63,5.59,1.66,1.48.02,3.9-.85,5.53-1.08,4.05-.56,9.48-.71,13.5.09,1.62.32,2.83,1.08,4.34,1.6.21.27-1.23,1.07-1.54,1.2-2.72,1.1-10.77,2.49-14.05,3.06-6.86,1.2-14.04,1.97-20.93,2.87-16.05,2.11-39.82,4.42-52.01-8.57-2.05-2.18-4.28-5.41-5.9-7.95-1.27-1.98-5.07-9.81-6.95-10.35-4.6-.29-9.32.19-13.91-.05-3.73-.19-6.85-.88-10.74-.87-2.94,0-6.21-.43-9.23-.94-5.17-.88-7.78-3.52-11.26-6.96-2.29-2.26-3.17-1.61-6.11-.71-.15-2.02,2.21-3.02,3.15-4.49.79-1.24,1.02-2.95,1.68-4.36,4.93-10.41,12.22-9.15,21.97-11.88,1.81-.5,5-.74,3.42-2.93-1.42-1.98-4.13-3.5-5.71-5.12-1.23-1.26-3.73-4.91-4.25-6.56-1.14-3.61.79-11.47,1.79-15.32,2.91-11.25,5.1-18.13,14.44-25.62,15.08-12.1,34.63-19.85,52.19-27.95.51-.24,1.49-1.4,2.01-.72Z"/>
    </g>
  </g>
</svg>